/* XPM */
static char *_5645e5c4a6642b0f45c98fade07832a31qD4H6o5kO9iFUl[] = {
/* columns rows colors chars-per-pixel */
"80 80 248 2 ",
"   c #392D2B",
".  c #43302E",
"X  c #483A37",
"o  c #543C38",
"O  c #58423D",
"+  c #63483E",
"@  c #5B4442",
"#  c #584946",
"$  c #574B48",
"%  c #664A45",
"&  c #634E4B",
"*  c #754E48",
"=  c #6F5347",
"-  c #64514D",
";  c #6C514D",
":  c #73534D",
">  c #7B544C",
",  c #6B5855",
"<  c #785A55",
"1  c #7B5B54",
"2  c #69615E",
"3  c #7B635D",
"4  c #7B6964",
"5  c #7F7675",
"6  c #835C54",
"7  c #8A5D53",
"8  c #8C5C55",
"9  c #835D58",
"0  c #AA5B4B",
"q  c #83635C",
"w  c #8B635B",
"e  c #896459",
"r  c #946256",
"t  c #93645C",
"y  c #9B655A",
"u  c #93695E",
"i  c #9C6A5D",
"p  c #A56A5D",
"a  c #B46A55",
"s  c #B46C5B",
"d  c #AE705F",
"f  c #B6715D",
"g  c #BB735D",
"h  c #846661",
"j  c #866B65",
"k  c #8C6B63",
"l  c #966B66",
"z  c #946C64",
"x  c #9B6D64",
"c  c #84716B",
"v  c #8C736C",
"b  c #94746D",
"n  c #9A7468",
"m  c #9B746B",
"M  c #8B7875",
"N  c #957B75",
"B  c #9C7B74",
"V  c #A36D63",
"C  c #AD6F64",
"Z  c #B56E63",
"A  c #A47265",
"S  c #AC7364",
"D  c #A3746B",
"F  c #AA766B",
"G  c #A57A6C",
"H  c #AC7B6C",
"J  c #B47465",
"K  c #BB7563",
"L  c #B47965",
"P  c #BC7965",
"I  c #B57669",
"U  c #BA7669",
"Y  c #B57B6C",
"T  c #BB7C6C",
"R  c #A37D73",
"E  c #A67B75",
"W  c #AB7D72",
"Q  c #B47D72",
"!  c #BB7E71",
"~  c #C0745F",
"^  c #C07662",
"/  c #C17A65",
"(  c #C17D6B",
")  c #C87F69",
"_  c #C27F71",
"`  c #8E827E",
"'  c #96827B",
"]  c #9D837C",
"[  c #BD816D",
"{  c #AC8174",
"}  c #A58579",
"|  c #A4847B",
" . c #AB847B",
".. c #AC8A7D",
"X. c #B48174",
"o. c #BC8374",
"O. c #B68977",
"+. c #B4847B",
"@. c #BC857A",
"#. c #B48A7D",
"$. c #BC8A7C",
"%. c #B9907F",
"&. c #C68168",
"*. c #C2816E",
"=. c #C28474",
"-. c #C48976",
";. c #C98875",
":. c #C1867A",
">. c #C38B7C",
",. c #CA8C7B",
"<. c #C4907E",
"1. c #CB927F",
"2. c #9B8984",
"3. c #9A928B",
"4. c #A38681",
"5. c #A58B84",
"6. c #AB8C83",
"7. c #A78D88",
"8. c #B48C83",
"9. c #B68B85",
"0. c #BC8D82",
"q. c #A99186",
"w. c #A4938C",
"e. c #AC938C",
"r. c #B39186",
"t. c #BE9284",
"y. c #B4948B",
"u. c #BC948B",
"i. c #B5998E",
"p. c #BD998D",
"a. c #A59692",
"s. c #AC9691",
"d. c #A69A94",
"f. c #AB9B95",
"g. c #A49799",
"h. c #A69D9A",
"j. c #AB9D9A",
"k. c #B39791",
"l. c #BA9692",
"z. c #B49B94",
"x. c #BC9C94",
"c. c #B39E9A",
"v. c #BB9E99",
"b. c #ACA198",
"n. c #ADA29D",
"m. c #BEA196",
"M. c #B3A29D",
"N. c #BCA39C",
"B. c #BDA89E",
"V. c #AD9FA0",
"C. c #A7A4A1",
"Z. c #ADA4A2",
"A. c #AEA9A6",
"S. c #AEACAA",
"D. c #B3A6A2",
"F. c #BBA6A1",
"G. c #B4AAA5",
"H. c #BCAAA4",
"J. c #B5A7AA",
"K. c #B5ACAB",
"L. c #BAADAB",
"P. c #B5B1AD",
"I. c #BBB1AD",
"U. c #B5AFB0",
"Y. c #BBAFB1",
"T. c #B6B2B1",
"R. c #BBB3B2",
"E. c #BCB8B8",
"W. c #C28D82",
"Q. c #C68F83",
"!. c #C49284",
"~. c #C99384",
"^. c #CA9986",
"/. c #C3958B",
"(. c #CA9689",
"). c #C49A8D",
"_. c #CA9B8C",
"`. c #D09580",
"'. c #C49C93",
"]. c #C59A94",
"[. c #CA9E92",
"{. c #C49E99",
"}. c #CEA18E",
"|. c #C4A195",
" X c #CBA295",
".X c #C4A49B",
"XX c #CBA59B",
"oX c #C3A99E",
"OX c #CCA99D",
"+X c #D1A395",
"@X c #D1A699",
"#X c #D3AA9A",
"$X c #D3AA9D",
"%X c #C4A6A1",
"&X c #CAA7A1",
"*X c #C3ABA4",
"=X c #CCACA3",
"-X c #C4AEAA",
";X c #CAAEAA",
":X c #D1ADA3",
">X c #D1AEAA",
",X c #CDB1A5",
"<X c #C4B2AC",
"1X c #C9B5AA",
"2X c #CCB3AC",
"3X c #D3B1A6",
"4X c #D2B4AB",
"5X c #D9B7AB",
"6X c #D4B9AE",
"7X c #C6AFB0",
"8X c #C2B5B2",
"9X c #CBB6B2",
"0X c #C4B9B5",
"qX c #CCBAB4",
"wX c #C1B7BA",
"eX c #C5BCBB",
"rX c #CCBCBA",
"tX c #D3B6B2",
"yX c #D3BAB4",
"uX c #D9BDB4",
"iX c #D3BDBA",
"pX c #D9BFBC",
"aX c #CDC1BC",
"sX c #D4C1BC",
"dX c #D9C4B9",
"fX c #DAC3BD",
"gX c #E1C6BE",
"hX c #CCBEC0",
"jX c #CCC2C2",
"kX c #D4C5C2",
"lX c #DAC5C2",
"zX c #D5C9C4",
"xX c #DBCAC4",
"cX c #D4CCCB",
"vX c #DCCDCA",
"bX c #DBD1CA",
"nX c #DDD1CC",
"mX c #DDD4D1",
"MX c #D9D5D4",
"NX c #E1CEC9",
"BX c #E4D0C6",
"VX c #E2D2CD",
"CX c #E2D5D1",
"ZX c #E4DBD6",
"AX c #E4DCDA",
"SX c #E8DBD8",
"DX c #E9E1DE",
"FX c #E8E5E3",
/* pixels */
").s U BXsX;X0.4Xo.J XX).>.x.w.+.b x w F t.F n =XB.h G.9XI.2X9X&Xo.L.-.P *.P o.=.=.(.MXmXqX*.*.$.^ g ) K D.kXiX.X).u.U o.U @.XX>.$.Y Q U !.U X.D.qX4XU @.XX:.t.W.",
"$. X2XiX;X,XzXX.K U X.o.$.i.' |.I n e { W ] =Xk {.F.f.<Xu.N.OXXXT f.Q K ( ~ $.o.>./.>.=X,.1. XXX^ [ o.-.M.2X2Xx.o.XX@.;XU o.#.Y W.D H Y X.L /.M.2XyXU o.OX$Xo.'.",
"#.{ y.s.e.6.|  .W | 6.7.| z.f.5.| | | | | 6.....{ ..O.+.[ W y.X.x.n.a.q.y.z.s.y.i.6.e.e.z.r.w.7...| 7.r.n.c.B.x.y.+.8.8.X.{ X.r.F X.y.B.Q  .t.h.y.!.O.{ Y S Y S ",
"d.d.f.f.h.h.d.d.d.f.a.d.d.b.j.d.b.M.M.n.M.j.b.j.n.b.M.n.n.j.j.n.j.n.n.M.b.h.Z.Z.n.M.M.Z.D.D.Z.H.D.D.b.h.h.j.n.n.h.D.b.n.M.n.D.M.n.n.n.j.n.M.j.h.n.f.j.j.Z.Z.M.n.",
"I #.5...N.'  X[._._./.!. X$X[.[._.<. X X_.^.XX|.D.y. XOX'.'.XXtXsXsXxXzXlX2XrXiXsXuX|.b.N.:X;X;X XXX9X0X;X;X=X=X=XOX>X2X&X.Xj.k.p.x.r.c.y.6.r.8.r.G R y.y.6...r.",
"U I < * 7.M :.U J g [ g T  X[.o.g / g ( >.(.( !.D.y.:.$.].XXzXqXsXsX2XiX X:XXXXX4XyXXXa. X X.X!.-.( /.]. X:X/.@X). X:.oX). Xj.p.5.| R $.$.j 6.B w 6 6 t 7 k t o ",
"A +.4 e ' N K T T J a ^ T [.u.0.T K / g =.^ / =.n.2X[.:.t.=X2X;XkX2X'.;X>.@.[.'.+X9XtXb.5X>.;X'.!.@.%X=X%X/.W.$.[.'.$.u.+.!.M.|.- : n G n q & M.X < < i y 9 w   ",
"=XoXM 7 4.2.J P K K g / K !.o.>.].$.*.P P &./ -.d.XX).t.2X.X=X.XkX|.'./.(.&X_.(.).=XXXF.XX[.XXW.W.$.9X!.|.7X[.[.(.).{.W.+.$.M.x., < q R R h @ @ o # - 6 e D ; & ",
"S p F.q 2.2.U T K K ! P g =.[.=.*.T =.,.-.-.=.>.d..XXX8.%X].=X'.yX3X.XXX=XlX!.T >XfX=XD.$XmXvX;XW.u.cX:X:X.X(.>.(.'././.{.=.M.%X, @ % H  .{ 3 O % ; o < k t : w ",
"Q x e.& M 2.U K K K K g P =./ / -.K P K / T *.o.j.XX X|.=.=. X!.XX(./.XX=XtX_.=._.lX2XH.NXdXvXiX&X;XtX2X.X.X X/.>.W.>.W./.W.b.oX% @ = $.W w 4 X   O o w < u 4 q ",
"0.#.z 3 r.w.o.U K T K P -.,.-.,.) ^ ) K K / &.=.Z..X,.-.,.&.) ( :.:.!.'.nX5XyX).CXlXNXD..XXX2X%X&X=X5X2X/.)._.~._.>.o.! /.[.M.m.k < h X.b  .#.b O < q ; n n 6.u.",
"|.O.R m.u.d..XO.Q l.X.u.#.t.).!.$.$.$.$.$.o.!.t.G.x.p.$.$.t.$.@.$.$.0.%.rX2X-XqXcXsX=XD.*Xt.p.H.x.<X.X-X).p.!.$.$.$.0.O.|.{.D.#.u.N b N 5.p.x.p.x.oX|.i.| N ' p.",
"D.G.D.D.D.D.d.d.a.d.j.n.h.Z.h.h.h.j.Z.Z.Z.Z.Z.G.P.G.D.n.Z.n.M.h.h.G.G.D.Z.j.Z.n.n.n.n.K.D.j.d.a.d.j.f.a.a.a.d.h.h.d.h.d.d.f.G.f.7.7.q.d.w.w.w.w.e.2.w.d.d.d.d.h.",
"k.D.z.M.F.J.F.k.f.z.z.D.F.L.K.D.L.H.I.G.L.z.F.R.H.v.z.N.<XN.v.F.L.R.K.<XH.c.H.H.<XB.H.L.B.H.H.I.L.F.z.z.H.H.G.D.D.H.c.D.d.w.2.z.s.c.c.H.f.H.H.G.M.z.c.k.e.z.M.M.",
"X.).@.!.u.v./.Q X.$.0.x..X<XG.-XtX/.'.{./.I =.=X!.o.U -.}.-.*.1.XXR.V.iX'.X.'./. X!.p.XX/. X X[. X>.Y T D.=Xu.6.6.{. .y.x R u { H #.$.[.#.2X2XD.#.!.$.O./.).!.).",
"Y Y $.:.I U I Y Y X.@.l.u.F.I.6X&XK U o.=.L / P @.U T ,.!.!.K ^ >.R.h.oX!.$./.(.>.W.@.$._.>.o.o.>.W.T f n.*XD n y Y u n e ..).l U Y S J +.F.,XD.J Y P u.sX).o./.",
"! @.'.U I J Y Y Q Q Y u.u.N.R.=XX.Y T J =.:.:.K U Y P =.!.~.K K (.E.a.0.!.!.'.4X=X).:.W.(.:.$.=.!.!.:.g Z.B.A n A F 6 n x z #.z X.[ S p Q 2.=XZ.J o.T '.qX! X.W.",
"@.$.0.U Y J U I X.U Q @.+.v.R.!.J ! o.! o.>.!.T W.W.K / =.*.P -. XE.5.$.!.!.yXxXlX).:.W.W.>.o.$.).W.!.s D.v.I p W i r z n < B D o.S i 7 A c .XD.#.o.! W..X$.[ =.",
"X.Q $.U Q U J U X.Y Q @.+.x.L.$.J J /./.>.o.(.-./.=.K / ;.( >.~. XR.| $.W.!.$X=X=X X!.@.u.!.@.W.).&X4XP G.6.I A r n i w B b q X.X.V r | r b 6.D.x.>.o.0.'./.o.!.",
"@.U 0.U Y U J U X.Y 0./.u.x.L./.o.@.0.).o.>.).,.>.Y P ( *.Q. X~. X8X4.$.!.:.:.@.>.=X[.0..X X!.).0.iXxXr.L.r.A x k 9 i w k b < n x A w b | w r.G.x.'..X)./.W.=./.",
"$.:.X.C Q ).@.! !.{..X&Xu.y.R.p.!._./._.!._._._. X:.@.).(.$X#X#X!.R.e.XXOX!.!.). X=X'.XXXXXX/.OX/.uX4Xz.I.t.n : v 6 7 x < z R { e X.t h .X| =XL.y.x.*Xu.).+.Y X.",
"x.N.x.7.c.8XN.x.*XqXH.-Xz.M.K.c.x.B.B.F.F.H.B.H.-XN.N.-X*X*X*X*Xx.I.G.0X8X-X*X<X8X<XH.2XL.*XB.-X*XqX*XF.R.m.7.M w.e.2.e.2.e.M.N.e.oXy.v.*X<X<XI.M.B.D.M.N.c.x.v.",
"D.D.G.G.K.K.Z.D.N.D.b.Z.L.G.D.D.D.D.D.A.D.D.G.K.K.G.G.L.L.K.K.G.L.K.K.P.K.R.R.E.P.R.K.R.T.R.K.K.R.P.I.I.K.L.D.D.G.K.K.G.G.G.K.G.I.L.H.<XH.H.L.L.F.B.H.B.H.F.v.H.",
"oXx..X*XF.K.8.4 8.x.A z.j M M ` 3.2.4 p.R v 4 oXG.F.*X;Xv..Xm.{..X.Xm.0X<XB.x.%X*X*XaXR.F.<X8X%X2X;X<XqXqX*X9XqXqX<X%X2XaX-XL.*XiX*XsX2X].XX{.{.'.'.0.$.'.{.oX{.",
"yXu.tX:X{.K.z @ x u.R 6.: @ $ $ 2 , @ A n q % r.K.%XXX[./.~.>._.~.>.>.2XXX>.=.Q.~.'.xXD.qX2XiXfX4X4X4XnXvXyXfXzXsXtXyXyXnX;XY.uXxX'.yXOXW.(. X[.[.).W.0.XX/.[.!.",
"tX%XiX4XXXK.c @ V F v z b < 3 3 ; 4 < t z k < | L.].[._._.>.1.<._.=.,.~.(.,.,.-. X'.yXD.sXkX2XxXfXyXyXxXrXzXxXrXsX;XsXqXiX;XR.xXiX;X4X.X'./..X'.|.&X Xu.o.t.$.W.",
"OX2XyX=X$XS., O x 6 & 6.5.4 @ ' @ < j S n z e B K./.[.!._.~.^.=.!.>.,.,.(.(.>.>.[.oX4XZ.iXvX;XsXzXiX2XiX9XkXrX-XkX%X9XqX9X;XE.sXrXiX4Xp./.oX2XoXXX{.=X@.K 0././.",
"_.'.=XuX$XS.- X - M X c v #   5 @ t q X.k 6 z | K./.).!._._.(.,.!.:X_._.iX:XXX_.=X>X:XG.nXiXtXvXkX;X=XfX2X;X2X-XqX9XqXqXsX%XR.yXrX4XXX9.0.=X&X2X;X'.'.@.J !./.=X",
"(.(.3XuX XK.q.-   # X & 4 X X G.@ % < n w ; x b L.!.).(.@X@X_._.XX5X$XdXuXuXuX5X6XfX5XI.fX9XyXxXvXsXyXvX*XqXxXsX9XtX9XkXvXyXT.sXiX=X*X0.XX4X&X XoXOX_.!.o.!./.=X",
"$X(.@X$X!.K.] 5 @ X o o   $ X 3.5.% ; < o # R u.L./.,.$. X_.~.).$X4XfXfX=X6XfX4X4XdX5XI.qX*X4XfXsXuXfXNXlXlXsXsXiXpXfXiXvXyXP.=XfXfX,X=X2X4XOX).XX.Xt.).$X X).,X",
"p.t.).).$.T.] ] e z A r | p.| O.+.< i.r.| R '.'.L.y.+X!.<._.!._.$XXX5X5X X:XOXt.&X3X3X-Xx.XX:X4X2X,X,X=X4X>X2X2X<X-X*XB.<X<XT.D.N.*Xx.l.z.l.i.y.y.k.f.f.c.f.e.j.",
"G.M.D.G.D.S.n.D.h.M.M.M.K.I.G.H.n.h.L.L.L.D.L.I.R.K.8XI.I.0X8XeXeXeXjXjXeXeXeX0XeXeX8XL.L.R.8XR.R.R.R.R.8XR.R.E.R.R.R.R.U.R.R.R.I.K.R.K.K.K.K.L.G.K.T.K.K.K.G.G.",
"oX-XB.*Xx.x.*XoXx.c.8XL.H.L.R.L.D.H.f.-X<X0X<XH.8XeXeXeX0X0X8X8XE.E.D.H.*X;X;X|.%X%XoXH./.m.<X;X<XN.B.-XU.I.N.<Xx.m.oX'.XX;X=X-X2XOX|.9X8X8XH.E.T.L.G.<XeX0X2X;X",
" XX.Y o.].|. XiX'.u.iXnXnXtXK.0XxXzXkXvXNXvXVXCXBXCXZXAXmXmXvXxXvXE.*X=XOXo.O.n +.z v z G Y D R 6.W b e.R.x.oXXXoX>.$.(.!.W./.fX4XXX_.$.$.2X2XE.y.Q 2X|.0.].=X'.",
"o.T K K @.[.OXtX$.U xXNX{.6XS.eXAXzX9X%XiXxXZXCXxXSXAXAXDXDXSXvXvXR.B. X).U A x R q ; w > t H t l n j | E.x.u.!.0.$.o.!.:.=.o.2X'.=.=.T o.T ).E.X.|.0.|.0.t.*Xu.",
"K K U !.U 0.5X_.(.Y sX4XuX9XS.D.oXtX2XyXyXvXVXlXvXkXtXbXDXAXFXDXzXE.c.=X{ V i { l 8.N n j G Q.b A v 4  .R.m.t.=X$.@.o.!.>.! @.0.=X!.>.T $.,.$.R.X.'.+.*Xt.@.u.0.",
"f (.K U Q uX.X[.=.J %XZ 9Xv.S.e.tXiX!.bXsXnXmXCX2X<Xv.AXZXFXFXZXvXeXw.2X8.W x.OXn B , Q N n > : b v - ; E.e.@.$.X.@.o.-.! :.T :.@.$. XK U !.W.K.Y yX8.9.-Xx.p.$.",
"[ <.;.X.P @.tXL s -.'.@.iXrXS.-X! u.fX;X8.@./.N./.9.zXAXAXAXAXZXCXE.7.).>.o.W n 8.E q { { e X < n q - - K.B #.W.t.:.o.yXNX! U =.=.T ).$.'.T (.U.).nX<XkXzXvX3XfX",
"s '.sX'.yXkX-XdX*.K ! iX| %XK.r.z.|.pXoX/.vX=Xx.o.fXNXDXAXFXFXDXCXE.] uXp.4.X.6.X.w A % r d < i V w n H.I.e.'. XXX3X@XiXyXo.[.@X,.1._.>.!.L  XS.oX6XxXpXSXvXxXxX",
"BXxXmXxXyXxXpXnX'.xXsXsXsXyXC.H.4X5X .u.p.e.uXoXQ iXvXCXVXDXAXCX2X8Xj.$XA B { #.F D u Y G A F u t n : q.F.e.5XuX3XOX3X3XuX#XOX4X=X>.9.5X:X[.p.K.2XxXQ.].lXdXdXdX",
"a.d.a.a.M.h.h.j.n.d.h.j.n.n.T.Z.Z.n.n.Z.G.Z.n.c.h.Z.j.n.n.Z.Z.j.D.R.n.M.d.f.d.d.h.h.d.a.d.h.j.f.d.f.h.f.K.P.K.K.S.K.K.S.K.S.U.K.S.K.K.S.K.U.T.T.K.K.S.K.K.T.G.G.",
"Z.Z.Z.I.R.E.G.I.I.R.L.L.L.L.K.G.K.K.G.P.P.K.I.L.R.P.R.K.R.I.I.P.K.K.G.P.L.K.L.R.K.I.R.T.P.I.P.L.L.I.G.D.L.I.H.I.H.I.H.<XL.I.E.D.G.G.D.L.G.G.G.G.D.G.K.G.G.D.D.M.",
"w.D.B 7.*XT.<X X X).{.:.p -.!._.3X=X XOXtX*XfXsXI.c.tX4XqX4X:X:X$XXX X:X;XyX2X4X5XyX[.g.oXx.2X$.(./.uX+X=XfXNXdX:X:X4XkXZX1XL.=X6XuX4XyX*XoXe.=XOX*XB.|.%X4X2X=X",
": 4.b b y.P.e.*.( o./ ( `.T -./ =.OX=.SX!.).xXlXL.r.:X~.o.=.0.4X,Xt.;XsX:X/.nX2X>.yX( a.fX[.$.o.o.W.o.Q.OX:.4X-.>. XnXZXZXbXR.+.e.m.r.z.] c $ 3.c 4 ` 7.n m.m.&X",
"< 4 b e z S.j.:.[.OX=.L >.[ [ ( =.[. XuX X2XxXiX8X8.o.T =.-.x.4X].:.yX@X4X2XqXyX&X2X_.a.iX/.o.o.$.o.$.=.XXo.2XW.:.tXFXAXAXMXL.A W A k H.v , , B 2.c , e.< ]  .p.",
"' N E n b S.c.sX{.$.=. X-.>.P ( ;._._.fX-.gXsX4X8X6.>.<.}.@.%XtXXXXXiX@X2X).-XtX X).'.a.9XXX#.@.$.o.X.=./.<.$.:.~.yXFXFXE.mXL.V +.D W j B =Xx.4.z , # B q q  .8.",
"3 z D B B A.j.CXtXxX^.).@.Y P ( ( =.(.sX).fXsX=X8X..,.( J P yX>XiX2X.X/. X#.=X;Xx.&X(.g.-Xt.).u.[.-.o.=.!.t.W.:.=.sXnXAXMXkXL.V A F i 3 b '.oXn | , @ 6., w B W ",
" . .x < B S.<XZXqXxX).t.BXY ( / ( P fXzX(.yXiX(.L.6.).!.o.P rXnX&XuX'.XX Xx.|.:X!.+X#Xj..X|.&X5X:.!.o.( $.]./.:.T 4XFXFXFXrXR.w z #.n R n ^.y.B h X X @ j n h B ",
"+.6.6.z.6.A.M.qXnXyXOXyXtXY [ P ;.T vXqX<.!.)./.L.8.(.@.t.o.{.VX(.=X5X=XXX=X].!./.3X$XM.y.;X4X5X(.!.o.>.t.&X!.-.>.[.mXAXbX;XR.k z.{.y.q  .}.y.e.m.& N ; : r.c p.",
"4.s.c.D.M.A.j.B.<XoX;XoXN.l.t.t./.p.F.-X.X{.x.x.P.q.p.$.x.].sXsX%X.XoX;X.X%XF.*X&XoX%XI.c.H.<X%X9.p.u.{.u.XX)..XoXN.B.L.<XD.T.h.*X<X*X*X*XN.N.B.x.B.%X*XB.%XH.z.",
"K.K.K.K.K.L.P.R.L.L.K.K.A.K.R.K.K.K.L.K.G.K.R.L.L.G.K.L.R.U.R.R.T.T.R.I.L.L.L.8XR.L.8XR.R.R.E.R.R.K.T.I.T.R.K.R.R.R.P.R.K.L.R.R.R.I.I.I.I.H.L.T.L.I.K.K.L.K.K.K.",
"L.rX8XH.H.F.<XrX%XF.k.x.F.m.N.D.oXB.x.e.d.M.2.2.8.B 5.5.N.l.c.z.c.R.G.l.x.t.).'. Xt.'..X*X.Xx.m.N.x.l..XL.M.%X*Xx.*XN.*XN.{.-XoXv.{..X=X%X).|.T.F.*X<XL.l.l.9.y.",
"H.mXmXc.qXD.9XiX;X9X!./.;X=Xu.H.2X.X6.6 < 2.X . u O @ * Q d F p A K.v./.:XT !.=.,.>.:.@X$X X,.>.-.o.*.(.-Xk.tXtX:.(.u.].(.>.XX>.=.).(.(.'.^ =XU.N.XX4X].Q Y @.Q ",
"x.2XmX8.F.v.aXMX2X%X9.tX&XsX=X-Xx.x.R 7 < # @ O > % . < V t : t : G.c.'.[.! >.*.=.(.o._.@X@X_.1.( *.*.=.;Xy.uX2X$._ <.=.-.o.~.~.!.|.[.=.Q.=.dXK.<XX.Q ! Y Y ).! ",
"=Xy.rXl.u.m.rXrXx./.@.lXmXhX-X%Xn #.6 y 6   3 e e O . n t 6 ; # & G.y.:.! ! o.U ;.,.o.Q.,.=.-.,.( *.( -.m.6.iX.X>.+X_.:.!.=.!.=.!.t.o.Q.-.).dXI.-Xu.@.X.Q Q 0.o.",
").x.-X<XXX-X2X]./.-X0.9XvXvX;X<XA x O < w X ; t.N 3 - 6 { : ; X , D.6.~.=.( *.d =.-.:.!.;.-.-.,.<.,.P ( m.4.=X-.(.XX X=.OX_.,.-.(.!.:.o.*.X.5XR.qXl.$.$.+.X.8.@.",
"Y $.x.iXXXOXXX.X9Xx.X.2X;XfX2XiXt.R . o t O & q.b | b 9 6.# X X , K.4.(.-.) =.=.-.=.=.:.=.-.*.;.+X~./ / oXw. X=.( :.(.,._.(.[.(.-.].,.-.~._.yXI.aX{.u.9.u.8.u.+.",
"Y X.v.xX&X/.oXu.{.r.Q [.X.yX X2X.Xy.@ . w 6 4 q B ] j 6 v 3 # & 4 K.7.!.Q.o.-.=.=.=.=.=._ =.*.*.(.>.*.( H.7.4X'.=.W._.(.>.).(._.!.o.~.T $X6X=XK.G.2XN.v.*Xu.u.+.",
"6.6.D.-XF.e.M.8.y.| 8.8.6.*Xy.G.z.6.v h ] y.B b r.] 6.b N e.c ] 2.K.M.u.p.8.$.$.0.$.0./.0.t.#.+.x.p.t.0.R.f.oXoXu.9.*Xx.0.{.u.9.0.8.m.r.m.*XM.K.d.L.D.H.G.c.z.y.",
"M.n.n.j.j.h.h.f.M.h.c.h.j.j.G.Z.h.c.s.M.c.M.c.M.G.D.M.F.F.M.F.B.M.K.I.G.G.c.M.M.M.M.M.H.H.D.D.M.Z.D.D.G.T.K.G.G.H.M.G.D.G.G.G.M.D.G.D.M.M.Z.D.T.K.K.A.K.S.S.A.Z.",
"X.u.8.l.x.K.D.x.p.l.x.*X;X*Xx.oX;X2X-Xm.x..XN.%XE.G.-X<X*XI.-X*XoXm.*XqX8XI.-X<X2XqX*XG.9X<XL.w.H.k.N.{.x.k.' 4.6.z.y.x.*XL.E.L.oXx..X*XH.F.*XB.-Xx.u.x.x.F.*XB.",
"a K s ! @.T.N.y.! !..X=X6X=XXX4XtX=X.X@.!.!.!.=X8XM.9XqX2X%X;X/.[.OX.XOXm.aX;XxXyXCX4Xh.x.'.0.z y.q O.y F x : 6 > w L B |.N.E.oX X).>.,.).o. X>.W.P U U U 0.!.XX",
"s a g J @.R.x.p.Q '.=X4XfX=XyX=XsXu.$.J @.:.o.:X0Xk.2X-X!.!.'._.;XvXu.t.9.2X9XzXkXsXxXn.W +.J p D % 7 + e u w b q O y h W i.wXXX#X X_.K !.-.~.( P K T g a T K  X",
"J T >.I u.E.x.,Xm.).=XyXdX=XyX.X,Xo.o.f =.=.$.$XeXf.4X/.:.-.:.&XsXAX0.u.x.;XzX<XsXkXvXZ.Y X.X.Y V t e n 6.] 3 b x & > 9 6 | eX3X3X@X3XU W.(.-.(.[ ( P U K K &.[.",
"s K o.K $.R.N.tXiX/.3X4XtX4X=X X|.( =.U :.! =.XX0Xs.$X[ o.=.=.).;XXXx./.%X*X<XqX;XvXvXK.F W +.@.Q H n +...| u e 8 ; * q ; 6.hX5X$X_.[.U o.,.-.~.P =.P f K K /  X",
"a a K <.$.R.m.,XyX4X>XtXyXqX{.(.!.~.[ o.:.:.=.XX8Xw.3X(.-.( o.-.'.$./.0.=X%Xr.qX%X=XsXG.W Q $.$.>.$.A W n V A e ; % > < o | eXOX@X=.( K o.,.!.o.o.o.[ T U P K _.",
"s '.!.o.).L.H.2XtXyX=X>XyX=X9.o.>.OX,.+.[. X_.XX<Xw.4XOX>.$.!.-.W.=./.$.&X&X.Xk..X X4Xn.8.W $.0.A X.{ < | A x n > ; : : h ..wX|.:X(.P K T o.>.:.-.o.o.T T T T [.",
"6.c.f.6.k.K.D.e.y.l.v.y.'.r.8.#.9.u.p.6.v.x.x.x.L.d.oXx.6.e.z.x.x.u.x.p.%Xv.N.e.m.B.H.G.s.s.y.i.n R | b 7.r. .] | | n n 6.x.E.x..X>.X.U X.$.0.Y $.X.$.Y Y X.o.u.",
"h.n.j.Z.D.K.Z.h.f.n.D.M.c.M.D.j.D.M.G.n.G.D.G.D.R.G.G.G.J.K.G.G.L.G.K.F.L.G.G.D.K.K.G.K.D.G.D.D.b.n.b.M.n.D.M.b.M.M.M.M.n.G.R.L.L.F.D.M.M.D.H.M.M.c.c.c.k.c.c.b.",
"u.*Xu.{.*X8X2Xy.l.u.u.H.v.H.G.0X;X-X8X8X<X8.'.<Xp.|.u.|.=X'./.OX2XI.G.rX;Xm.B.B.2X%X*X<X-X2X9X;X<X.Xp.x.G.B.*XN.N.-X7.*Xl.q.b u.N.H.*XiXx.2X<XK.y./.y.8.8.p.x.x.",
"@.$.@.0.@.@.! X.! 8.9.'.u.F.G.tXsX$.o.t.>.Y P ). XW.$.>.W.,.P ;.).R.h.9XW.@.[./.t.0././.).).Q.!.(.:.Y U n.2X6.B D 8. .8.w E 0.m Y H o.$.#.2X=XG.Y P o.W 5X].W.XX",
"! Y /.Y U U Y Y Y @.Q {.l.N.P.4X=XU P K o.T *./ o.T K (.0._.P g $.E.h.'.!.W.!._.$./.@.:.).:.<.:.~. X:.g n.H.i n y X.> D t { ^.x T L L I $.N.=XG.I Y T ].sX0.! !.",
"X.!.'.Y U J Q I Y I Q p.u.F.I.:XU o.T U T !.!.K U o.K ( =.,.K ^ ).0Xh.W.(.!.XXsXyX'.:./.Q.,.o.o.!.:.o.a Z.*XF A 0.p 7 k x < n t Y U I p Y M =XZ.I X.o. XtXY X.$.",
"$.X.@.U Y J U U X.Y Q +.+.x.I.>.f K W.>.o.o.!.=.'.!.K / -.&.( ~.'.8X4.$.W.!.fXlXfX!.:.$.$.:.@.>..X!.(.f Z.y.J i A x r l R < b X.:.V r 6 p N v.G.u.! Y X.]./.Y _ ",
"! $.u.U X.U J U $.Y Q @.@.v.K.0.S d (._.:.@.(.:.>.T K P ;./ ^.=.[.I.4.+.t.t.W././.&X).o. X(.:.t.W.4XsXY K.| Q F 9 A V w D B < H Y A V |.u A E D.x.0.0.)././.>.[.",
"0.U t.U X.K U U @.Y !.[.u.x.I.).$.t.$.t.! Q._.,.(.Y P =.[ _.@X_.).8X] 0.!.X.@.>.:.4X_.t.(.XX0.).W.lXxXl.K.u.A t c : r e e h 3 n u G < + u.: m.G.v.oX6Xx.x.$.[ ! ",
"0.!.T d ! =XX.=.'.5XoX;X8.6.L.u.!.[. X X X X_.@X#X~.o.:XOX$X@X XT I.f.yX=X/.W.[.XXXX!.OX;X[.(.XX_.uX=Xx.I.t.k % j q 6 G = n { $.t #.x b |.XX=XL.u.).%X0.8.Q Y 0.",
"G.A.K.K.K.K.G.G.G.L.G.K.K.K.G.d.a.j.c.c.M.M.D.D.M.j.D.D.M.H.G.G.K.K.K.G.K.K.G.K.G.K.G.D.D.Z.n.G.D.G.G.I.I.e.w.w.s.j.f.s.w.j.f.j.n.Z.M.c.F.D.K.T.R.R.T.K.K.P.U.K.",
"n.Z.Z.A.A.K.Z.M.G.K.D.Z.K.K.L.D.Z.J.G.K.G.G.G.K.I.K.G.I.R.R.I.K.L.L.K.I.I.E.E.E.P.R.R.E.T.T.T.T.R.E.E.P.P.T.K.K.U.K.K.K.K.P.P.D.G.G.D.G.L.G.H.H.B.B.F.M.B.M.z.M.",
"|. XXX,XH.R.o., t.#.0 m.< & , , M ` 4 /.n % % XXD.oX2X2XN..XB.XX4X6X4XrXqXH.).oX2X2XxXL.F.oXyX X6X4X4XiXyX[.yXiXsX=XXX2XVX2XI.2XsXtXvX=X_. X).).{.[.o.Y ~.{.4X'."
};
